<?xml version="1.0" encoding="UTF-8" standalone="no"?>
<!-- Created with Inkscape (http://www.inkscape.org/) -->

<svg
   width="13mm"
   height="13mm"
   viewBox="0 0 13 13"
   version="1.1"
   id="svg5"
   sodipodi:docname="logo.svg"
   inkscape:version="1.1.1 (3bf5ae0d25, 2021-09-20)"
   xmlns:inkscape="http://www.inkscape.org/namespaces/inkscape"
   xmlns:sodipodi="http://sodipodi.sourceforge.net/DTD/sodipodi-0.dtd"
   xmlns="http://www.w3.org/2000/svg"
   xmlns:svg="http://www.w3.org/2000/svg"
   xmlns:rdf="http://www.w3.org/1999/02/22-rdf-syntax-ns#"
   xmlns:cc="http://creativecommons.org/ns#"
   xmlns:dc="http://purl.org/dc/elements/1.1/">
  <metadata
     id="metadata8">
    <rdf:RDF>
      <cc:Work
         rdf:about="">
        <dc:format>image/svg+xml</dc:format>
        <dc:type
           rdf:resource="http://purl.org/dc/dcmitype/StillImage" />
      </cc:Work>
    </rdf:RDF>
  </metadata>
  <sodipodi:namedview
     id="namedview7"
     pagecolor="#ffffff"
     bordercolor="#666666"
     borderopacity="1.0"
     inkscape:pageshadow="2"
     inkscape:pageopacity="0.0"
     inkscape:pagecheckerboard="0"
     inkscape:document-units="mm"
     showgrid="false"
     inkscape:zoom="7.246694"
     inkscape:cx="4.2088158"
     inkscape:cy="50.574786"
     inkscape:window-width="2560"
     inkscape:window-height="1361"
     inkscape:window-x="2091"
     inkscape:window-y="-9"
     inkscape:window-maximized="1"
     inkscape:current-layer="g96" />
  <defs
     id="defs2" />
  <g
     inkscape:label="Ebene 1"
     inkscape:groupmode="layer"
     id="layer1"
     transform="translate(0,3)">
    <rect
       style="fill:#fd4d01;fill-opacity:1;stroke:#ffffff;stroke-width:0.353184;stroke-opacity:1"
       id="rect92"
       width="12.646816"
       height="12.646816"
       x="0.17659187"
       y="-2.8234081"
       ry="1.3213106" />
    <g
       id="g96"
       transform="translate(0.87581542,-2.0111108)"
       style="stroke-width:1;stroke-miterlimit:4;stroke-dasharray:none">
      <path
         inkscape:connector-curvature="0"
         d="m 6.1669723,6.2024595 c 0,-0.3175 -0.296333,-0.3175 -0.4445,-0.3175 h -0.751417 c -0.148166,0 -0.4445,0 -0.4445,0.3175 0,0.328084 0.264584,0.328084 0.508,0.328084 V 10.17121 h -0.01058 L 3.2671423,6.2553765 c -0.169334,-0.370417 -0.433917,-0.370417 -0.635,-0.370417 h -0.53975 c -0.148167,0 -0.4445,0 -0.4445,0.3175 0,0.328084 0.264583,0.328084 0.508,0.328084 V 10.23471 c -0.243417,0 -0.508,0 -0.508,0.328083 0,0.3175 0.296333,0.3175 0.4445,0.3175 h 0.751416 c 0.148167,0 0.4445,0 0.4445,-0.3175 0,-0.328083 -0.264583,-0.328083 -0.508,-0.328083 V 6.5940435 h 0.01058 l 1.756833,3.9158335 c 0.169333,0.370416 0.433917,0.370416 0.645583,0.370416 0.3175,0 0.465667,-0.03175 0.465667,-0.4445 V 6.5305435 c 0.243417,0 0.508,0 0.508001,-0.328084 z m 3.042653,0.161349 c 0,-0.433916 -0.211666,-0.761999 -0.455083,-0.984249 -0.391583,-0.34925 -0.783167,-0.423334 -1.481667,-0.550334 -0.211666,-0.04233 -0.60325,-0.105833 -0.783166,-0.148166 -0.677333,-0.137584 -0.878417,-0.41275 -0.878417,-0.656167 0,-0.328083 0.4445,-0.6985 1.217083,-0.6985 1.2065,0 1.3335,0.560917 1.386417,0.8255 0.0635,0.264583 0.264583,0.264583 0.359833,0.264583 0.370417,0 0.370417,-0.243416 0.370417,-0.433916 v -0.867834 c 0,-0.15875 0,-0.433916 -0.328083,-0.433916 -0.179917,0 -0.3175,0.137583 -0.359834,0.3175 -0.423333,-0.254 -1.005416,-0.3175 -1.418166,-0.3175 -1.2065,0 -1.915583,0.687916 -1.915583,1.386416 0,0.465667 0.275166,0.783167 0.550333,0.98425 0.359833,0.254 0.624416,0.306917 1.55575,0.47625 l 0.6985,0.127 c 0.3175,0.07408 0.79375,0.3175 0.79375,0.751417 0,0.275166 -0.296334,0.79375 -1.27,0.79375 -0.08467,0 -0.624417,0 -1.037167,-0.116417 -0.47625,-0.137583 -0.53975,-0.391583 -0.560916,-0.613833 -0.01058,-0.148167 -0.02117,-0.359834 -0.359834,-0.359834 -0.370416,0 -0.07352,0.241091 -0.07352,0.431591 v 0.85725 c 0,0.15875 -0.296897,0.446826 0.03119,0.446826 0.275167,0 0.34925,-0.28575 0.34925,-0.28575 0.53975,0.28575 1.407583,0.28575 1.640416,0.28575 1.418167,0 1.9685,-0.867833 1.9685,-1.481667 z m -3.56109,-2.088053 c 0,-0.1905 -0.105833,-0.338667 -0.370417,-0.338667 -0.211666,0 -0.34925,0.105834 -0.359833,0.3175 -0.01058,0.201084 -0.09525,0.296334 -0.1905,0.296334 -0.264583,0 -0.264583,-0.34925 -0.264583,-0.709084 0,-0.53975 0,-0.878416 -0.455084,-1.217083 0.179917,-0.105833 0.73025,-0.486833 0.73025,-1.100666 0,-0.709084 -0.772583,-1.407584 -1.979083,-1.407584 h -1.640417 c -0.14816601,0 -0.44450001,0 -0.44450001,0.3175 0,0.328084 0.264584,0.328084 0.50800001,0.328084 v 3.704166 c -0.24341601,0 -0.50800001,0 -0.50800001,0.328083 0,0.3175 0.296334,0.3175 0.44450001,0.3175 h 0.85725 c 0.148167,0 0.4445,0 0.4445,-0.3175 0,-0.328083 -0.264583,-0.328083 -0.508,-0.328083 v -1.534583 h 0.804334 c 1.016,0 1.016,0.47625 1.016,0.677333 v 0.41275 c 0,0.994833 0.677333,1.17475 0.994833,1.17475 0.592667,0 0.92075,-0.508 0.92075,-0.92075 z m -1.640417,-2.751666 c 0,0.381 -0.508,0.762 -1.344083,0.762 h -0.751417 v -1.524 h 0.751417 c 0.836083,0 1.344083,0.381 1.344083,0.762 z"
         style="font-style:normal;font-variant:normal;font-weight:normal;font-stretch:normal;font-size:10.5833px;line-height:1.25;font-family:'Latin Modern Mono Caps';-inkscape-font-specification:'Latin Modern Mono Caps, Normal';font-variant-ligatures:normal;font-variant-caps:normal;font-variant-numeric:normal;font-feature-settings:normal;text-align:start;letter-spacing:0px;word-spacing:0px;writing-mode:lr-tb;text-anchor:start;fill:#ffffff;fill-opacity:1;stroke:none;stroke-width:1;stroke-miterlimit:4;stroke-dasharray:none"
         id="path37" />
      <path
         inkscape:connector-curvature="0"
         d="m 8.6922813,10.800239 c 0,-0.08116 -0.08116,-0.08116 -0.113628,-0.08116 -0.07305,0 -0.12986,-0.0081 -0.1745,-0.03652 V 9.7329535 c 0,-0.308419 -0.1745,-0.616837 -0.543791,-0.616837 -0.113628,0 -0.393639,0 -0.393639,0.251604 0,0.09334 0.06087,0.133919 0.113628,0.133919 0.01623,0 0.10957,0 0.113628,-0.154209 0,-0.01623 0,-0.05276 0.06493,-0.06087 0.03247,-0.0041 0.07305,-0.0041 0.105511,-0.0041 0.06493,0 0.162326,0 0.255663,0.105511 0.105512,0.117686 0.105512,0.259721 0.105512,0.434221 -0.170442,0.0081 -0.336826,0.02435 -0.511326,0.10957 -0.133918,0.06493 -0.324651,0.1988495 -0.324651,0.4666865 0,0.28407 0.190733,0.507267 0.442337,0.507267 0.09334,0 0.267837,-0.02029 0.417988,-0.170441 0.05682,0.137976 0.19885,0.146093 0.308419,0.146093 0.05681,0 0.133919,0 0.133919,-0.08116 z m -0.466686,-0.430163 c 0,0.105512 0,0.219139 -0.117686,0.300302 -0.101454,0.07305 -0.243489,0.07305 -0.243489,0.07305 -0.182616,0 -0.292186,-0.162326 -0.292186,-0.344942 0,-0.255663 0.296244,-0.4301635 0.653361,-0.4301635 z m -1.124099,0.430163 c 0,-0.08116 -0.0771,-0.08116 -0.10957,-0.08116 H 6.7078573 V 9.2865555 c 0,-0.10957 -0.03247,-0.129861 -0.113628,-0.129861 h -0.373349 c -0.03652,0 -0.113628,0 -0.113628,0.08116 0,0.08116 0.07711,0.08116 0.113628,0.08116 h 0.30436 v 1.4000585 h -0.324651 c -0.03247,0 -0.117686,0 -0.117686,0.08116 0,0.08116 0.08522,0.08116 0.117686,0.08116 h 0.791337 c 0.03247,0 0.10957,0 0.10957,-0.08116 z M 6.7078573,8.5926105 c 0,-0.08928 -0.06493,-0.150151 -0.125803,-0.150151 -0.06087,0 -0.125802,0.06087 -0.125802,0.150151 0,0.08928 0.06493,0.150151 0.125802,0.150151 0.06087,0 0.125803,-0.06087 0.125803,-0.150151 z m 3.8661437,-1.634654 c 0,-0.507268 -0.267837,-0.900907 -0.564081,-0.900907 -0.3003027,0 -0.5640817,0.393639 -0.5640817,0.900907 0,0.511325 0.267838,0.888732 0.5640817,0.888732 0.296244,0 0.564081,-0.377407 0.564081,-0.888732 z m -0.182616,-0.02841 c 0,0.417988 -0.166384,0.754814 -0.381465,0.754814 -0.2150817,0 -0.3855237,-0.340884 -0.3855237,-0.754814 0,-0.409872 0.1745,-0.706116 0.3855237,-0.706116 0.206965,0 0.381465,0.296244 0.381465,0.706116 z M 6.1374313,2.4785615 c 0,-0.08116 -0.0771,-0.08116 -0.10957,-0.08116 h -0.28407 v -1.432523 c 0,-0.10957 -0.03247,-0.129861 -0.113628,-0.129861 h -0.373349 c -0.03652,0 -0.113627,0 -0.113627,0.08116 0,0.08116 0.0771,0.08116 0.113627,0.08116 h 0.304361 v 1.400058 h -0.324651 c -0.03247,0 -0.117686,0 -0.117686,0.08116 0,0.08116 0.08522,0.08116 0.117686,0.08116 h 0.791337 c 0.03247,0 0.10957,0 0.10957,-0.08116 z m -0.39364,-2.207628 c 0,-0.08928 -0.06493,-0.150151 -0.125802,-0.150151 -0.06087,0 -0.125803,0.06087 -0.125803,0.150151 0,0.08928 0.06493,0.150151 0.125803,0.150151 0.06087,0 0.125802,-0.06087 0.125802,-0.150151 z"
         style="font-style:normal;font-variant:normal;font-weight:normal;font-stretch:normal;font-size:10.5833px;line-height:1.25;font-family:'Latin Modern Mono Light Cond';-inkscape-font-specification:'Latin Modern Mono Light Cond, Normal';font-variant-ligatures:normal;font-variant-caps:normal;font-variant-numeric:normal;font-feature-settings:normal;text-align:start;letter-spacing:0px;word-spacing:0px;writing-mode:lr-tb;text-anchor:start;fill:#ffffff;fill-opacity:1;stroke:none;stroke-width:1;stroke-miterlimit:4;stroke-dasharray:none"
         id="path53" />
    </g>
  </g>
</svg>
