<?xml version="1.0" encoding="UTF-8" standalone="no"?>
<svg
   width="19mm"
   height="19mm"
   viewBox="0 0 19 19"
   version="1.1"
   id="svg8"
   inkscape:version="1.1.1 (3bf5ae0d25, 2021-09-20)"
   sodipodi:docname="logo.svg"
   inkscape:export-filename="/home/rene/two/epwg.de/epwg_de.png"
   inkscape:export-xdpi="43.400002"
   inkscape:export-ydpi="43.400002"
   xmlns:inkscape="http://www.inkscape.org/namespaces/inkscape"
   xmlns:sodipodi="http://sodipodi.sourceforge.net/DTD/sodipodi-0.dtd"
   xmlns="http://www.w3.org/2000/svg"
   xmlns:svg="http://www.w3.org/2000/svg"
   xmlns:rdf="http://www.w3.org/1999/02/22-rdf-syntax-ns#"
   xmlns:cc="http://creativecommons.org/ns#"
   xmlns:dc="http://purl.org/dc/elements/1.1/">
  <defs
     id="defs2" />
  <sodipodi:namedview
     id="base"
     pagecolor="#ffffff"
     bordercolor="#666666"
     borderopacity="1.0"
     inkscape:pageopacity="0.0"
     inkscape:pageshadow="2"
     inkscape:zoom="3.959798"
     inkscape:cx="35.22907"
     inkscape:cy="67.806489"
     inkscape:document-units="mm"
     inkscape:current-layer="g1053"
     inkscape:document-rotation="0"
     showgrid="false"
     inkscape:window-width="2560"
     inkscape:window-height="1361"
     inkscape:window-x="2091"
     inkscape:window-y="-9"
     inkscape:window-maximized="1"
     inkscape:pagecheckerboard="0" />
  <metadata
     id="metadata5">
    <rdf:RDF>
      <cc:Work
         rdf:about="">
        <dc:format>image/svg+xml</dc:format>
        <dc:type
           rdf:resource="http://purl.org/dc/dcmitype/StillImage" />
      </cc:Work>
    </rdf:RDF>
  </metadata>
  <g
     inkscape:label="Ebene 1"
     inkscape:groupmode="layer"
     id="layer1">
    <g
       id="g1053"
       transform="translate(-62.067528,-13.102968)">
      <rect
         style="fill:#ff7f2a;fill-opacity:1;stroke:none;stroke-width:1.5;stroke-miterlimit:4;stroke-dasharray:none;paint-order:normal"
         id="rect840"
         width="19"
         height="19"
         x="62.067528"
         y="13.102968"
         rx="1.8993161"
         ry="1.9707814"
         inkscape:export-xdpi="43"
         inkscape:export-ydpi="43" />
      <g
         aria-label="logo"
         id="text1596"
         style="font-size:8.49835px;line-height:1.25;stroke-width:0.212459">
        <path
           d="m 63.123124,18.490729 h 0.763524 v 6.456754 h -0.763524 z"
           style="fill:#ffffff"
           id="path4174" />
        <path
           d="m 67.285158,20.835244 q -0.614139,0 -0.971003,0.481352 -0.356864,0.477202 -0.356864,1.311269 0,0.834067 0.352714,1.315418 0.356865,0.477203 0.975153,0.477203 0.609989,0 0.966853,-0.481352 0.356864,-0.481352 0.356864,-1.311269 0,-0.825767 -0.356864,-1.307119 -0.356864,-0.485502 -0.966853,-0.485502 z m 0,-0.647335 q 0.9959,0 1.564393,0.647335 0.568493,0.647336 0.568493,1.792621 0,1.141136 -0.568493,1.792621 -0.568493,0.647335 -1.564393,0.647335 -1.00005,0 -1.568543,-0.647335 -0.564344,-0.651485 -0.564344,-1.792621 0,-1.145285 0.564344,-1.792621 0.568493,-0.647335 1.568543,-0.647335 z"
           style="fill:#ffffff"
           id="path4176" />
        <path
           d="m 73.741912,22.569771 q 0,-0.829917 -0.344415,-1.286372 -0.340266,-0.456454 -0.958554,-0.456454 -0.614139,0 -0.958555,0.456454 -0.340266,0.456455 -0.340266,1.286372 0,0.825767 0.340266,1.282222 0.344416,0.456454 0.958555,0.456454 0.618288,0 0.958554,-0.456454 0.344415,-0.456455 0.344415,-1.282222 z m 0.763524,1.80092 q 0,1.186781 -0.526997,1.763573 -0.526998,0.580942 -1.614189,0.580942 -0.40251,0 -0.759374,-0.06224 -0.356864,-0.05809 -0.692981,-0.182582 v -0.742776 q 0.336117,0.182582 0.663934,0.269723 0.327817,0.08714 0.668083,0.08714 0.751075,0 1.124538,-0.39421 0.373462,-0.390061 0.373462,-1.182632 v -0.377612 q -0.236526,0.410809 -0.605839,0.614138 -0.369313,0.20333 -0.883862,0.20333 -0.854814,0 -1.377662,-0.651485 -0.522848,-0.651485 -0.522848,-1.726227 0,-1.078892 0.522848,-1.730377 0.522848,-0.651485 1.377662,-0.651485 0.514549,0 0.883862,0.20333 0.369313,0.203329 0.605839,0.614138 V 20.29995 h 0.763524 z"
           style="fill:#ffffff"
           id="path4178" />
        <path
           d="m 77.879049,20.835244 q -0.614139,0 -0.971003,0.481352 -0.356865,0.477202 -0.356865,1.311269 0,0.834067 0.352715,1.315418 0.356865,0.477203 0.975153,0.477203 0.609989,0 0.966853,-0.481352 0.356864,-0.481352 0.356864,-1.311269 0,-0.825767 -0.356864,-1.307119 -0.356864,-0.485502 -0.966853,-0.485502 z m 0,-0.647335 q 0.9959,0 1.564393,0.647335 0.568493,0.647336 0.568493,1.792621 0,1.141136 -0.568493,1.792621 -0.568493,0.647335 -1.564393,0.647335 -1.00005,0 -1.568543,-0.647335 -0.564344,-0.651485 -0.564344,-1.792621 0,-1.145285 0.564344,-1.792621 0.568493,-0.647335 1.568543,-0.647335 z"
           style="fill:#ffffff"
           id="path4180" />
      </g>
    </g>
  </g>
</svg>
