<?xml version="1.0" encoding="UTF-8" standalone="no"?>
<svg
   width="19mm"
   height="19mm"
   viewBox="0 0 19 19"
   version="1.1"
   id="svg8"
   inkscape:version="1.1.1 (3bf5ae0d25, 2021-09-20)"
   sodipodi:docname="logo.svg"
   inkscape:export-filename="/home/rene/two/epwg.de/epwg_de.png"
   inkscape:export-xdpi="43.400002"
   inkscape:export-ydpi="43.400002"
   xmlns:inkscape="http://www.inkscape.org/namespaces/inkscape"
   xmlns:sodipodi="http://sodipodi.sourceforge.net/DTD/sodipodi-0.dtd"
   xmlns="http://www.w3.org/2000/svg"
   xmlns:svg="http://www.w3.org/2000/svg"
   xmlns:rdf="http://www.w3.org/1999/02/22-rdf-syntax-ns#"
   xmlns:cc="http://creativecommons.org/ns#"
   xmlns:dc="http://purl.org/dc/elements/1.1/">
  <defs
     id="defs2" />
  <sodipodi:namedview
     id="base"
     pagecolor="#ffffff"
     bordercolor="#666666"
     borderopacity="1.0"
     inkscape:pageopacity="0.0"
     inkscape:pageshadow="2"
     inkscape:zoom="3.959798"
     inkscape:cx="4.9244936"
     inkscape:cy="67.806489"
     inkscape:document-units="mm"
     inkscape:current-layer="layer1"
     inkscape:document-rotation="0"
     showgrid="false"
     inkscape:window-width="2560"
     inkscape:window-height="1361"
     inkscape:window-x="2091"
     inkscape:window-y="-9"
     inkscape:window-maximized="1"
     inkscape:pagecheckerboard="0" />
  <metadata
     id="metadata5">
    <rdf:RDF>
      <cc:Work
         rdf:about="">
        <dc:format>image/svg+xml</dc:format>
        <dc:type
           rdf:resource="http://purl.org/dc/dcmitype/StillImage" />
      </cc:Work>
    </rdf:RDF>
  </metadata>
  <g
     inkscape:label="Ebene 1"
     inkscape:groupmode="layer"
     id="layer1">
    <path
       id="path15182"
       style="fill:#ff7f2a;fill-opacity:1;stroke:none;stroke-width:5.66929;stroke-miterlimit:4;stroke-dasharray:none;paint-order:normal"
       d="M 18.322266,0 0,18.320312 v 46.042969 c 0,4.126537 3.2008357,7.447266 7.1777344,7.447266 H 53.056641 L 71.810547,53.058594 V 7.4492188 C 71.810547,3.3226817 68.609711,0 64.632812,0 Z"
       transform="scale(0.26458333)" />
    <g
       id="g13453"
       transform="matrix(0.41394267,-0.41394267,0.41394267,0.41394267,-9.5052177,1.4055336)"
       style="fill:#ffffff">
      <path
         d="m -1.3930887,26.417614 -0.036173,0.651121 q 0.2428785,-0.387572 0.5787742,-0.578774 0.3358958,-0.19637 0.7648088,-0.19637 0.8371555,0 1.3177448,0.775144 0.263549,-0.387572 0.5942771,-0.578774 0.3307281,-0.19637 0.733803,-0.19637 0.5322655,0 0.8784965,0.258381 0.3513987,0.258382 0.4495836,0.635619 0.098185,0.372069 0.098185,1.214392 v 4.873072 H 1.9607011 v -4.469997 q 0,-0.878497 -0.062012,-1.085202 -0.056844,-0.211873 -0.2738843,-0.211873 -0.2222079,0 -0.2893871,0.206706 -0.062012,0.206705 -0.062012,1.090369 v 4.469997 H -0.752303 v -4.356309 q 0,-1.007688 -0.051676,-1.209225 -0.046509,-0.201538 -0.2687166,-0.201538 -0.139526,0 -0.2377109,0.108521 -0.098185,0.103352 -0.1085201,0.258381 -0.010335,0.149861 -0.010335,0.645953 v 4.754217 h -2.0257097 v -6.857441 z"
         style="font-size:10.5833px;line-height:1.25;font-family:Impact;-inkscape-font-specification:'Impact, Normal';fill:#ffffff;stroke-width:0.264583"
         id="path13238" />
      <path
         d="m 9.2005453,26.417614 -0.84749,2.733675 1.100704,4.123766 h -2.010207 l -0.651121,-2.986888 v 2.986888 H 4.7047105 v -8.366388 h 2.0877208 v 3.513986 l 0.651121,-2.005039 z"
         style="font-size:10.5833px;line-height:1.25;font-family:Impact;-inkscape-font-specification:'Impact, Normal';fill:#ffffff;stroke-width:0.264583"
         id="path13240" />
      <path
         d="m 14.512866,24.908667 v 8.366388 h -2.087721 v -0.496092 q -0.299723,0.310057 -0.630451,0.465086 -0.330728,0.155029 -0.692462,0.155029 -0.485757,0 -0.842323,-0.253214 -0.3565657,-0.258381 -0.4599187,-0.594277 -0.09819,-0.335896 -0.09819,-1.095537 v -3.209096 q 0,-0.790647 0.09819,-1.121375 0.103353,-0.330728 0.4650867,-0.578774 0.361734,-0.253214 0.862993,-0.253214 0.387572,0 0.707965,0.139526 0.325561,0.139526 0.58911,0.418578 v -1.943028 z m -2.087721,3.234935 q 0,-0.377237 -0.06718,-0.506428 -0.06201,-0.129191 -0.253214,-0.129191 -0.186035,0 -0.253214,0.118856 -0.06201,0.113688 -0.06201,0.516763 v 3.358957 q 0,0.418578 0.06201,0.552936 0.06201,0.129191 0.237711,0.129191 0.201538,0 0.268717,-0.144694 0.06718,-0.149861 0.06718,-0.723468 z"
         style="font-size:10.5833px;line-height:1.25;font-family:Impact;-inkscape-font-specification:'Impact, Normal';fill:#ffffff;stroke-width:0.264583"
         id="path13242" />
      <path
         d="m 19.985383,28.825728 v 1.679479 q 0,0.925005 -0.09302,1.359086 -0.09302,0.428913 -0.397908,0.80615 -0.30489,0.372069 -0.785479,0.552936 -0.475422,0.175699 -1.095537,0.175699 -0.692462,0 -1.173051,-0.149861 -0.480589,-0.155029 -0.749306,-0.459919 -0.263549,-0.310058 -0.377237,-0.744138 -0.113688,-0.439249 -0.113688,-1.312577 v -1.756994 q 0,-0.95601 0.206705,-1.493444 0.206706,-0.537433 0.744139,-0.862993 0.537433,-0.325561 1.374588,-0.325561 0.702798,0 1.204057,0.211873 0.506428,0.206705 0.780312,0.542601 0.273884,0.335895 0.372069,0.692462 0.103353,0.356566 0.103353,1.085201 z m -2.087721,-0.516762 q 0,-0.527098 -0.05684,-0.661457 -0.05684,-0.139526 -0.242879,-0.139526 -0.186034,0 -0.248046,0.139526 -0.06201,0.134359 -0.06201,0.661457 v 3.095408 q 0,0.485757 0.06201,0.635618 0.06201,0.144694 0.242879,0.144694 0.186034,0 0.242878,-0.134359 0.06201,-0.134358 0.06201,-0.578774 z"
         style="font-size:10.5833px;line-height:1.25;font-family:Impact;-inkscape-font-specification:'Impact, Normal';fill:#ffffff;stroke-width:0.264583"
         id="path13244" />
      <path
         d="m 25.287368,29.006595 h -1.968866 v -0.790647 q 0,-0.41341 -0.06718,-0.558103 -0.06718,-0.149862 -0.248046,-0.149862 -0.180867,0 -0.242879,0.129191 -0.06201,0.129191 -0.06201,0.578774 v 3.234935 q 0,0.366901 0.09302,0.552936 0.09302,0.180867 0.273884,0.180867 0.211873,0 0.28422,-0.191203 0.07751,-0.191202 0.07751,-0.723467 v -0.816485 h 1.860346 q -0.0052,0.821652 -0.06201,1.235063 -0.05168,0.408242 -0.346231,0.842323 -0.289387,0.428913 -0.759641,0.651121 -0.470254,0.21704 -1.162716,0.21704 -0.883664,0 -1.400427,-0.299722 -0.516762,-0.30489 -0.733803,-0.847491 -0.211872,-0.547769 -0.211872,-1.550288 v -1.948195 q 0,-0.873329 0.175699,-1.317745 0.175699,-0.444416 0.749306,-0.790647 0.573606,-0.351399 1.395259,-0.351399 0.816485,0 1.395259,0.346231 0.578775,0.346231 0.769977,0.873329 0.191202,0.527098 0.191202,1.493444 z"
         style="font-size:10.5833px;line-height:1.25;font-family:Impact;-inkscape-font-specification:'Impact, Normal';fill:#ffffff;stroke-width:0.264583"
         id="path13246" />
      <path
         d="m 30.170775,28.608688 h -1.85001 v -0.372069 q 0,-0.475422 -0.05684,-0.599445 -0.05168,-0.129191 -0.268716,-0.129191 -0.1757,0 -0.263549,0.118856 -0.08785,0.113688 -0.08785,0.346231 0,0.315225 0.04134,0.465086 0.04651,0.144694 0.263549,0.320393 0.222208,0.175699 0.904335,0.511595 0.909502,0.444416 1.193721,0.837156 0.28422,0.392739 0.28422,1.142045 0,0.837156 -0.217041,1.266069 -0.21704,0.423745 -0.728635,0.656288 -0.506427,0.227376 -1.224727,0.227376 -0.795815,0 -1.364254,-0.248046 -0.563271,-0.248046 -0.775144,-0.671792 -0.211873,-0.423745 -0.211873,-1.281571 v -0.330728 h 1.850011 v 0.434081 q 0,0.552936 0.06718,0.7183 0.07235,0.165364 0.279052,0.165364 0.222208,0 0.310057,-0.10852 0.08785,-0.113688 0.08785,-0.470255 0,-0.490924 -0.113688,-0.614947 -0.118855,-0.124023 -1.214392,-0.733803 -0.919838,-0.516763 -1.121375,-0.935341 -0.201538,-0.423745 -0.201538,-1.002519 0,-0.821653 0.217041,-1.209225 0.21704,-0.392739 0.733803,-0.604612 0.52193,-0.211873 1.209224,-0.211873 0.682127,0 1.157549,0.175699 0.480589,0.170532 0.733803,0.454752 0.258381,0.284219 0.310057,0.527098 0.05684,0.242878 0.05684,0.759641 z"
         style="font-size:10.5833px;line-height:1.25;font-family:Impact;-inkscape-font-specification:'Impact, Normal';fill:#ffffff;stroke-width:0.264583"
         id="path13248" />
      <path
         d="M 6.7149179,35.586086 5.88293,42.443527 H 3.6143418 Q 3.4283072,41.187794 3.1854288,39.136246 3.1027467,40.035413 2.9528856,40.955251 L 2.7203424,42.443527 H 0.45175421 L -0.43190997,35.586086 H 1.3664241 q 0.020671,0.268717 0.4547512,3.922229 0.031006,-0.372069 0.4650864,-3.922229 h 1.731155 l 0.4237454,3.922229 q 0.098185,-1.715652 0.4754216,-3.922229 z"
         style="font-size:10.5833px;line-height:1.25;font-family:Impact;-inkscape-font-specification:'Impact, Normal';fill:#ffffff;stroke-width:0.264583"
         id="path13250" />
      <path
         d="m 10.97821,37.704813 q 0.475422,0.160197 0.707965,0.527098 0.232543,0.361734 0.232543,1.705317 0,0.997352 -0.227375,1.550288 -0.227376,0.547769 -0.78548,0.837156 -0.558103,0.284219 -1.4314323,0.284219 -0.9921843,0 -1.5606233,-0.330728 Q 7.3505361,41.942267 7.1696692,41.461678 6.9939699,40.975921 6.9939699,39.782199 v -0.661456 h 2.0877212 v 1.359086 q 0,0.542601 0.062011,0.692462 0.067179,0.144694 0.2893871,0.144694 0.2428785,0 0.3203929,-0.186035 0.077514,-0.186035 0.077514,-0.971514 v -0.578774 q 0,-0.480589 -0.1085202,-0.702797 Q 9.6139557,38.655657 9.402083,38.588478 9.1902103,38.516128 8.5804304,38.505798 v -1.214393 q 0.7441382,0 0.9198375,-0.05684 0.1756994,-0.05684 0.2532138,-0.248046 0.077514,-0.191202 0.077514,-0.599444 v -0.465087 q 0,-0.439248 -0.093017,-0.578774 -0.08785,-0.139526 -0.2790519,-0.139526 -0.2170403,0 -0.2997223,0.149861 -0.077514,0.144694 -0.077514,0.625283 v 0.687294 H 6.9939699 v -0.713132 q 0,-1.198889 0.5477684,-1.617467 0.5477684,-0.423746 1.7414902,-0.423746 1.4934445,0 2.0257095,0.583942 0.532266,0.583942 0.532266,1.622635 0,0.702797 -0.191202,1.018022 -0.191203,0.310058 -0.671792,0.568439 z"
         style="font-size:10.5833px;line-height:1.25;font-family:Impact;-inkscape-font-specification:'Impact, Normal';fill:#ffffff;stroke-width:0.264583"
         id="path13252" />
      <path
         d="m 17.282715,38.175067 h -1.968866 v -0.790646 q 0,-0.413411 -0.06718,-0.558104 -0.06718,-0.149861 -0.248046,-0.149861 -0.180867,0 -0.242879,0.12919 -0.06201,0.129191 -0.06201,0.578775 v 3.234934 q 0,0.366901 0.09302,0.552936 0.09302,0.180867 0.273884,0.180867 0.211873,0 0.28422,-0.191202 0.07751,-0.191202 0.07751,-0.723468 v -0.816485 h 1.860346 q -0.0052,0.821653 -0.06201,1.235063 -0.05168,0.408242 -0.346231,0.842323 -0.289387,0.428913 -0.759641,0.651121 -0.470254,0.21704 -1.162716,0.21704 -0.883664,0 -1.400427,-0.299722 -0.516762,-0.30489 -0.733803,-0.847491 -0.211872,-0.547768 -0.211872,-1.550288 v -1.948195 q 0,-0.873329 0.175699,-1.317745 0.175699,-0.444416 0.749306,-0.790647 0.573607,-0.351399 1.395259,-0.351399 0.816485,0 1.395259,0.346231 0.578775,0.346231 0.769977,0.873329 0.191202,0.527098 0.191202,1.493444 z"
         style="font-size:10.5833px;line-height:1.25;font-family:Impact;-inkscape-font-specification:'Impact, Normal';fill:#ffffff;stroke-width:0.264583"
         id="path13254" />
      <path
         d="m 22.166122,37.77716 h -1.85001 v -0.372069 q 0,-0.475422 -0.05684,-0.599445 -0.05168,-0.12919 -0.268716,-0.12919 -0.1757,0 -0.263549,0.118855 -0.08785,0.113688 -0.08785,0.346231 0,0.315225 0.04134,0.465087 0.04651,0.144693 0.263549,0.320392 0.222208,0.1757 0.904335,0.511595 0.909502,0.444416 1.193721,0.837156 0.28422,0.39274 0.28422,1.142045 0,0.837156 -0.21704,1.266069 -0.217041,0.423745 -0.728636,0.656289 -0.506427,0.227375 -1.224727,0.227375 -0.795815,0 -1.364254,-0.248046 -0.563271,-0.248046 -0.775144,-0.671791 -0.211873,-0.423746 -0.211873,-1.281572 v -0.330728 h 1.850011 v 0.434081 q 0,0.552936 0.06718,0.7183 0.07235,0.165364 0.279052,0.165364 0.222208,0 0.310057,-0.10852 0.08785,-0.113688 0.08785,-0.470254 0,-0.490925 -0.113688,-0.614948 -0.118855,-0.124023 -1.214392,-0.733803 -0.919838,-0.516763 -1.121375,-0.93534 -0.201537,-0.423746 -0.201537,-1.00252 0,-0.821653 0.21704,-1.209225 0.21704,-0.392739 0.733803,-0.604612 0.52193,-0.211873 1.209225,-0.211873 0.682126,0 1.157548,0.1757 0.480589,0.170531 0.733803,0.454751 0.258381,0.284219 0.310058,0.527098 0.05684,0.242878 0.05684,0.759641 z"
         style="font-size:10.5833px;line-height:1.25;font-family:Impact;-inkscape-font-specification:'Impact, Normal';fill:#ffffff;stroke-width:0.264583"
         id="path13256" />
      <path
         d="m 27.147715,37.77716 h -1.850011 v -0.372069 q 0,-0.475422 -0.05684,-0.599445 -0.05168,-0.12919 -0.268716,-0.12919 -0.1757,0 -0.263549,0.118855 -0.08785,0.113688 -0.08785,0.346231 0,0.315225 0.04134,0.465087 0.04651,0.144693 0.263549,0.320392 0.222208,0.1757 0.904335,0.511595 0.909502,0.444416 1.193722,0.837156 0.284219,0.39274 0.284219,1.142045 0,0.837156 -0.21704,1.266069 -0.217041,0.423745 -0.728636,0.656289 -0.506427,0.227375 -1.224727,0.227375 -0.795815,0 -1.364254,-0.248046 -0.563271,-0.248046 -0.775144,-0.671791 -0.211872,-0.423746 -0.211872,-1.281572 v -0.330728 h 1.85001 v 0.434081 q 0,0.552936 0.06718,0.7183 0.07235,0.165364 0.279052,0.165364 0.222208,0 0.310058,-0.10852 0.08785,-0.113688 0.08785,-0.470254 0,-0.490925 -0.113688,-0.614948 -0.118855,-0.124023 -1.214392,-0.733803 -0.919837,-0.516763 -1.121375,-0.93534 -0.201537,-0.423746 -0.201537,-1.00252 0,-0.821653 0.21704,-1.209225 0.21704,-0.392739 0.733803,-0.604612 0.52193,-0.211873 1.209225,-0.211873 0.682126,0 1.157548,0.1757 0.480589,0.170531 0.733803,0.454751 0.258381,0.284219 0.310058,0.527098 0.05684,0.242878 0.05684,0.759641 z"
         style="font-size:10.5833px;line-height:1.25;font-family:Impact;-inkscape-font-specification:'Impact, Normal';fill:#ffffff;stroke-width:0.264583"
         id="path13258" />
    </g>
  </g>
</svg>
